<?xml version="1.0" standalone="no"?>
<!DOCTYPE svg PUBLIC "-//W3C//DTD SVG 20010904//EN"
 "http://www.w3.org/TR/2001/REC-SVG-20010904/DTD/svg10.dtd">
<svg version="1.0" xmlns="http://www.w3.org/2000/svg"
 width="512.000000pt" height="512.000000pt" viewBox="0 0 512.000000 512.000000"
 preserveAspectRatio="xMidYMid meet">
<metadata>
Created by potrace 1.11, written by Peter Selinger 2001-2013
</metadata>
<g transform="translate(0.000000,512.000000) scale(0.100000,-0.100000)"
fill="#000000" stroke="none">
<path d="M368 5100 c-90 -26 -163 -70 -226 -138 -67 -72 -99 -129 -122 -217
-18 -67 -19 -156 -18 -2180 0 -2327 -4 -2186 64 -2307 34 -61 128 -160 169
-179 11 -5 34 -17 50 -27 82 -49 -27 -46 2113 -50 1618 -2 2002 0 1996 10 -6
10 -4 10 8 0 12 -9 52 -12 143 -11 143 1 259 24 306 58 15 11 31 21 33 21 10
0 50 34 98 83 55 56 92 118 116 196 16 52 17 195 17 2201 0 2341 4 2183 -57
2296 -39 72 -141 173 -208 206 -128 62 30 58 -2295 57 -2049 -1 -2122 -1
-2187 -19z m4706 -3578 c3 -5 -1 -9 -9 -9 -8 0 -12 4 -9 9 3 4 7 8 9 8 2 0 6
-4 9 -8z m-4824 -1002 c0 -5 -5 -10 -11 -10 -5 0 -7 5 -4 10 3 6 8 10 11 10 2
0 4 -4 4 -10z"/>
</g>
</svg>
